/* XPM */
static const char *back[] = {
/* columns rows colors chars-per-pixel */
"32 32 125 2 ",
"   c #29973D",
".  c #25993E",
"X  c #2A9B3D",
"o  c #339E3F",
"O  c #39A03F",
"+  c #249A42",
"@  c #2C9C41",
"#  c #229A48",
"$  c #339E41",
"%  c #34A043",
"&  c #3BA243",
"*  c #33A049",
"=  c #3CA248",
"-  c #44A644",
";  c #49A745",
":  c #4CA946",
">  c #46A649",
",  c #4BAA49",
"<  c #56AC46",
"1  c #59AC45",
"2  c #55AC49",
"3  c #59AD48",
"4  c #5DB149",
"5  c #62AF46",
"6  c #61AF48",
"7  c #63B046",
"8  c #61B047",
"9  c #67B145",
"0  c #65B046",
"q  c #64B147",
"w  c #66B046",
"e  c #66B146",
"r  c #67B146",
"t  c #65B246",
"y  c #67B247",
"u  c #64B047",
"i  c #69B145",
"p  c #68B345",
"a  c #68B146",
"s  c #6AB147",
"d  c #68B246",
"f  c #69B247",
"g  c #6AB247",
"h  c #6CB347",
"j  c #6BB446",
"k  c #6FB547",
"l  c #62B048",
"z  c #61B04A",
"x  c #64B148",
"c  c #67B148",
"v  c #64B249",
"b  c #66B248",
"n  c #65B24C",
"m  c #64B149",
"M  c #68B248",
"N  c #68B349",
"B  c #6AB348",
"V  c #6BB349",
"C  c #69B449",
"Z  c #6CB449",
"A  c #6CB44A",
"S  c #71B547",
"D  c #73B646",
"F  c #72B647",
"G  c #73B647",
"H  c #7DB947",
"J  c #70B548",
"K  c #71B649",
"L  c #72B648",
"P  c #70B64B",
"I  c #73B64A",
"U  c #72B64A",
"Y  c #74B84A",
"T  c #77BA4D",
"R  c #76B94B",
"E  c #7BB949",
"W  c #78B94A",
"Q  c #79B94A",
"!  c #7BBA4B",
"~  c #7CBA49",
"^  c #7DBB4A",
"/  c #7DBB4B",
"(  c #7FBB4A",
")  c #7ABA4D",
"_  c #78B84F",
"`  c #7FBB4C",
"'  c #7CBA4B",
"]  c #7BBA51",
"[  c #7EBF51",
"{  c #8EBE47",
"}  c #81BA48",
"|  c #83BD4B",
" . c #86BD49",
".. c #84BC4A",
"X. c #85BC4B",
"o. c #83BD4C",
"O. c #83BD4D",
"+. c #84BD4C",
"@. c #8BBF49",
"#. c #88BF4B",
"$. c #8BBF4A",
"%. c #8BBE4B",
"&. c #8ABF4B",
"*. c #8BBF4B",
"=. c #8CBF49",
"-. c #8EBE49",
";. c #8DBE4A",
":. c #8CBF4A",
">. c #8CBE4B",
",. c #88BF4C",
"<. c #8ABF4C",
"1. c #8BBF4D",
"2. c #8BBF4E",
"3. c #8ABF4C",
"4. c #80BB50",
"5. c #89BF50",
"6. c #8BC047",
"7. c #83C04E",
"8. c #85C04E",
"9. c #8BC049",
"0. c #89C04A",
"q. c #8AC04B",
"w. c #88C14D",
"e. c #89C04B",
"r. c #88C153",
/* pixels */
"< - + & < < < d q.( < < 1 ; + @ < < < < < < + @ 3 < < 2 + . _ &.",
"- & % - < 3 d d d 0 < < - - % & d v < 1 M M % & < < < < & $ ` &.",
"+ % < 1 1 M ;.C + $ 1 : + % < 8 ;.O.1 1 ;.;.1 < < 1 < < 1 1 ..&.",
"& : S 0 < 5 L 1 + @ 1 < & - 1 5 &.O.1 1 I S L j 1 < & & < < j L ",
"1 d 9.S < 1 1 - + @ < < < 1 2 5 { ..1 < 1 1 <...1 < . . 2 < < < ",
"< M ;.S < < < : % & 1 1 M 0 < 1 8 4 1 < 1 < R L - - % & 2 < < < ",
"< d ;.L 1 < < 1 1 < < 5 &.E 1 : + X < < < < 1 2 + + 2 < < < < < ",
"< l E M < 3 d 5 < < < 3 T Z - - $ O < < 0 d < < $ O < < < < 0 d ",
"< < 1 < < h &.E 2 < 2 2 1 ; + @ < 1 1 1 9.<.1 < 1 < < < < < | ;.",
"1 < ; < < 0 ( L 2 2 ; : 2 ; @ % 1 < ; : ( ` 1 1 8 8 1 < < < R } ",
"< - + & < 1 1 < 1 ; + @ 2 2 2 2 1 < . + < < < 3 q.<.1 1 < 1 < < ",
"< - + & 1 1 1 < , - @ $ 2 3 6 3 < < X $ < < : < &.&.: : < < < < ",
"< - + & 1 1 < ; + $ 2 2 2 n r.4.1 1 2 < < 2   o q.7.  . < 1 < < ",
"0 < % - < < < ; $ & 2 2 2 l ] _ 0 0 < 1 v v @ @ E T o $ < < ; - ",
"6.E 1 1 < < < < 2 2 2 2 < 2 2 6 9.O.1 3 <.q.    2 1 < < < < X + ",
"} L 1 < < 1 5 3 2 3 l 6 3 2 < 3 } ( < 1 ` ) $ $ 1 1 < < : ; & & ",
"2 2 2 2 3 A &.E 1 5 ;.O.1 < 1 < 1 1 < < 1 1 2 < < < < 2   + ) ;.",
"2 3 3 3 3 A &.( < 0 &.| 1 < 1 < , : 1 < < < 5 3 1 < < 2 X X R ..",
"2 v <.P < A ;.H < 0 &.| 1 < 1 : . X < < 1 1 <.O.1 < < 1 < < < 1 ",
"2 v &.L 1 C &.E < 0 ,.) < < < : + @ < < 3 1 ,...< < < < < < 1 1 ",
"# * 2 Z 9.R 2 < < < < : + $ 2 : + @ 1 1 9.<.1 1 1 < + . < < < < ",
"# % 2 Z <.R 3 3 2 < < :   $ < : . X < 1 <.<.1 1 1 < + + < < 1 < ",
"2 2 2 1 1 2 2 - . o < < 2 2 < < 2 2 1 < 1 1 < 3 <.7.  + 2 < X + ",
"< 2 , 2 2 2 1 ;   $ < < 1 1 < < 1 1 3 3 < 1 1 3 ;.7.X   < < o @ ",
"< > + & < 3 3 2 2 , + @ 2 < 2 2 1 3 <.,.1 < < 5 9.8.1 < 1 < < < ",
"2 > # = 2 3 1 1 2 , # @ 2 1 1 1 1 3 <.,.1 1 1 3 ,.,.1 1 2 2 < < ",
"2 2 2 2 2 C &.T < 2 2 2 < v q.` 1 < 1 1 q.8.1 1 1 1 < 2 X . < < ",
"1 3 2 3 1 M 9.T 2 2 1 1 3 v 8.` < 1 2 3 <.8.1 < < < < 2 X   : 2 ",
",.T 2 Z ,.R 1 1 2 l ,.) 1 1 3 1 < < .   1 1 1 < < < < 1 [ [ o . ",
"&.E 2 L 6.R 2 3 2 l <.O.1 3 2 2 1 < + + < < < < < < 1 1 ,.q.o + ",
"3 3 2 L &.E 2 2 2 3 3 v O.R 2 2 1 < + + < 1 X o < 1 | O.5 3 < < ",
"2 2 2 L &.E 2 2 2 2 2 5 &.( 2 2 < < + + < < + @ < 1 9.&.3 < < < "
};
