/* XPM */
static const char *bee[] = {
/* columns rows colors chars-per-pixel */
"32 32 168 2 ",
"   c #020101",
".  c #0A0702",
"X  c #0C0903",
"o  c #0D0D0B",
"O  c #120D04",
"+  c #161005",
"@  c #1A1204",
"#  c #18140B",
"$  c #151413",
"%  c #1D1C15",
"&  c #1B1B1B",
"*  c #201707",
"=  c #211807",
"-  c #251C09",
";  c #281D09",
":  c #291E04",
">  c #221F10",
",  c #2E220B",
"<  c #3B2B0C",
"1  c #37280A",
"2  c #2C2A19",
"3  c #393517",
"4  c #2D2D2D",
"5  c #272723",
"6  c #3E3B28",
"7  c #412F0B",
"8  c #45320B",
"9  c #463310",
"0  c #493611",
"q  c #4F3C18",
"w  c #543D13",
"e  c #5C420A",
"r  c #5D4415",
"t  c #5A471B",
"y  c #6C4D0C",
"u  c #79570D",
"i  c #694D18",
"p  c #634917",
"a  c #6C5019",
"s  c #6E5311",
"d  c #72541A",
"f  c #7E5C1D",
"g  c #7F622B",
"h  c #6D6636",
"j  c #756D31",
"k  c #4C4B4C",
"l  c #474546",
"z  c #585758",
"x  c #63615B",
"c  c #6A6968",
"v  c #666567",
"b  c #72706E",
"n  c #7B7A7C",
"m  c #835F0F",
"M  c #88620F",
"N  c #86621F",
"B  c #926913",
"V  c #9D7216",
"C  c #A27513",
"Z  c #8B6620",
"A  c #836428",
"S  c #906A22",
"D  c #9C7325",
"F  c #8C703D",
"G  c #977434",
"H  c #A57927",
"J  c #AD7F28",
"K  c #A17726",
"L  c #887F40",
"P  c #807E7D",
"I  c #B88515",
"U  c #8C833A",
"Y  c #988D3F",
"T  c #BF8C2D",
"R  c #B7872B",
"E  c #AA8239",
"W  c #BC8F39",
"Q  c #B59B3F",
"!  c #CE9518",
"~  c #DFA21A",
"^  c #ECAB1C",
"/  c #E2A41B",
"(  c #C08E2D",
")  c #C8932F",
"_  c #D69C23",
"`  c #CD9730",
"'  c #CF9831",
"]  c #C79538",
"[  c #D49C32",
"{  c #D69F37",
"}  c #C3A03D",
"|  c #DBA134",
" . c #EAAA25",
".. c #F0AF26",
"X. c #F2B12B",
"o. c #E2A635",
"O. c #E6A936",
"+. c #ECAE38",
"@. c #EEB039",
"#. c #F4B333",
"$. c #F7B63B",
"%. c #F7BA3F",
"&. c #88804D",
"*. c #948B44",
"=. c #998759",
"-. c #A29847",
";. c #ADA35C",
":. c #B7AC5B",
">. c #BDB159",
",. c #86817D",
"<. c #969173",
"1. c #AA9D7B",
"2. c #F6BB41",
"3. c #F8BC40",
"4. c #E9C34D",
"5. c #F9C74B",
"6. c #FBD14F",
"7. c #E1D25C",
"8. c #EED15A",
"9. c #FAD85A",
"0. c #CDC061",
"q. c #D2C565",
"w. c #E7D367",
"e. c #EFE069",
"r. c #FFEE6A",
"t. c #FAE765",
"y. c #7E7E80",
"u. c #8A8A8C",
"i. c #868588",
"p. c #8F8E91",
"a. c #908E91",
"s. c #9D9891",
"d. c #9B9B9D",
"f. c #979595",
"g. c #BAA580",
"h. c #BFB892",
"j. c #BFB99C",
"k. c #A5A5A8",
"l. c #AAAAAB",
"z. c #A0A0A3",
"x. c #AFB0B2",
"c. c #B2B2B3",
"v. c #B6B6BA",
"b. c #B9B9BD",
"n. c #C0BAA2",
"m. c #C2BEAD",
"M. c #DCC49C",
"N. c #CAC7BA",
"B. c #F8DAA2",
"V. c #F8E0A9",
"C. c #F0E8B8",
"Z. c #FDF4BB",
"A. c #BFBFC4",
"S. c #BFC0C3",
"D. c #CBCBCD",
"F. c #C1C2C4",
"G. c #CDCED2",
"H. c #D1D2D6",
"J. c #D5D6DA",
"K. c #D9DADE",
"L. c #D7D8DC",
"P. c #DDDEE1",
"I. c #DFE0E2",
"U. c #E1E3E5",
"Y. c #E4E6E8",
"T. c #F7F7F8",
"R. c #FDFDFD",
"E. c None",
/* pixels */
"E.E.E.E.E.E.E.E.E.E.E.E.E.E.E.E.E.E.E.E.E.E.E.E.E.E.E.E.E.E.E.E.",
"E.E.E.E.E.E.E.E.E.E.E.E.E.E.E.E.E.E.E.E.E.E.E.E.E.E.E.E.E.E.E.E.",
"E.E.E.E.E.E.E.E.E.E.E.E.E.E.E.E.E.E.E.E.E.E.E.E.E.E.E.E.E.E.E.E.",
"E.E.E.E.k u.S.J.J.l.z E.E.E.E.E.E.E.E.E.E.E.E.E.E.E.E.E.E.E.E.E.",
"E.E.E.k n i.k.L.L.L.D.z E.E.E.E.E.E.E.E.E.E.E.E.E.E.E.E.E.E.E.E.",
"E.l p.U.Y.U.x.y.H.L.L.d.E.E.E.E.E.E.E.E.E.E.E.E.E.E.E.E.E.E.E.E.",
"k f.P.Y.Y.Y.Y.D.n J.L.G.k E.E.E.E.E.E.E.E.E.E.E.E.E.E.E.E.E.E.E.",
"z.v.Y.Y.Y.Y.Y.Y.F.u.L.L.v E.E.E.E.E.E.E.E.E.E.E.E.E.E.$ E.E.E.E.",
"L.v.Y.Y.Y.Y.Y.Y.Y.d.v.L.y.E.E.E.E.E.E.E.E.E.E.E.E.E.&     E.E.E.",
"L.v.P.Y.Y.Y.Y.Y.Y.I.n L.y.E.E.E.E.E.E.E.E.E.E.E.E.$ .       E.E.",
"L.H.b.Y.Y.Y.Y.Y.Y.P.u.<.;.0.h . *.w.:.o 2 E.E.&           E.$   ",
"L.L.A.D.Y.Y.Y.K.c.a.j.;.r.U . Y r.e.3 - 7.:.$ % E.E.E.E.& o     ",
"L.L.L.b.D.U.D.m.u.n.Z.=.Q . a %.2.t . } 9.6 j e.*.E.E.$ E.E.E.  ",
"k.L.L.L.b.N.C.f.s.V.B.F * ; +.$.K   f $.W # 4.r.r.>.& E.E.E.E.E.",
"E.n S.L.N.Z.n.u.M.B.1.q   H $.+.- * +.$.G 9 $.3.9.r.-.E.E.E.E.E.",
"E.E.E.x 1.h.P ,.g.=.E + , $.$.D   Z $.$.] J $.$.$.6.r.L E.E.E.E.",
"E.E.E.q.8.A $ g { $.K   N $.$.7 . | $.$.$.$.$.$.$.$.6.7.E.E.E.E.",
"E.E.&.t.%.w   [ $.$.r   ` $.O.X 1 $.$.$.$.{ J [ $.O.w > 5 E.E.E.",
"E.E.>.5.$.* @ $.$.$.; + +.$.T   a $.$.$.K . 4 b G p   d.R.u.E.E.",
"E.E.w.$.@.. 1 $.$.$.O , $.$.D   S $.$.@.* . L.R.s.*   k.R.c E.E.",
"  $ 5.$.o.. < $.$.o.. < $.$.Z   D $.$.O.X   c.T.c w   o 4   E.E.",
"  % 2.$.O.. < $.$.O.X 1 $.$.S   D $.$.$.0   . & , +.f 7 s E.E.E.",
"  . +.$.$.X , $.$.$.O ; $.$.H   Z $.$.$.o.r - w [ $.$.^ / E.E.E.",
"E.E.T $.$., X +.$.$.1 X O.$.`   r $.$.$.$.$.$.$.$.$.#.^ I E.E.E.",
"E.E.f $.$.i   ( $.$.d   R $.+.@ ; $.$.$.$.$.$.$.$.$...^ M E.E.E.",
"E.E.E.| $.R   d $.$.T   i $.$.r   ) $.$.$.$.$.$.$.X.^ ~ E.E.E.E.",
"E.E.E.r @.$.; @ +.$.$., O O.$.T   i $.$.$.$.$.$.X.^ ^ u E.E.E.E.",
"E.E.E.E.r o.D   N $.$.H   f $.$.9 . [ $.$.$.#...^ ^ m E.E.E.E.E.",
"E.E.E.E.E.E.V 1 O [ $.$.0 X [ $.` X 0 #.#...^ ^ ! y E.E.E.E.E.E.",
"E.E.E.E.E.E.E.@   1  .X._ @ 1  .X.B   M ^ ^ I u E.E.E.E.E.E.E.E.",
"E.E.E.E.E.E.E.E.E.E.E.y B e   8 C V : . e E.E.E.E.E.E.E.E.E.E.E.",
"E.E.E.E.E.E.E.E.E.E.E.E.E.E.E.E.E.E.E.E.E.E.E.E.E.E.E.E.E.E.E.E."
};
