/* XPM */
static const char *door[] = {
/* columns rows colors chars-per-pixel */
"32 32 178 2 ",
"   c #020102",
".  c #010209",
"X  c #070808",
"o  c #0B0B0B",
"O  c #150A04",
"+  c #100D0C",
"@  c #070810",
"#  c #030618",
"$  c #0C0B13",
"%  c #141414",
"&  c #18171A",
"*  c #1B1A1B",
"=  c #391701",
"-  c #361901",
";  c #391800",
":  c #251812",
">  c #201F1D",
",  c #2C1F16",
"<  c #21201F",
"1  c #33261E",
"2  c #392918",
"3  c #211F20",
"4  c #212121",
"5  c #282828",
"6  c #282725",
"7  c #3D2E23",
"8  c #2E322F",
"9  c #2C3531",
"0  c #343A36",
"q  c #3D3C37",
"w  c #39372A",
"e  c #46381A",
"r  c #443225",
"t  c #48362A",
"y  c #4E3829",
"u  c #483529",
"i  c #593E2F",
"p  c #523B2C",
"a  c #4E3E32",
"s  c #413D38",
"d  c #403D34",
"f  c #623F2B",
"g  c #3D423D",
"h  c #58471B",
"j  c #50402F",
"k  c #58402F",
"l  c #4A4A3E",
"z  c #5C4633",
"x  c #534834",
"c  c #5D4836",
"v  c #5B4B3C",
"b  c #534A39",
"n  c #664D36",
"m  c #754E34",
"M  c #744F39",
"N  c #695039",
"B  c #66513D",
"V  c #7B5035",
"C  c #74563D",
"Z  c #7A543C",
"A  c #755133",
"S  c #404E47",
"D  c #434340",
"F  c #6F5741",
"G  c #705742",
"H  c #7B5241",
"J  c #715842",
"K  c #7B5C42",
"L  c #797778",
"P  c #797879",
"I  c #7B7775",
"U  c #835537",
"Y  c #85563A",
"T  c #845939",
"R  c #8A5D3E",
"E  c #835937",
"W  c #86623E",
"Q  c #8B603F",
"!  c #835F44",
"~  c #8C5F40",
"^  c #805F48",
"/  c #866145",
"(  c #8D6242",
")  c #876A4F",
"_  c #896A49",
"`  c #926545",
"'  c #936946",
"]  c #956C49",
"[  c #986E4B",
"{  c #877747",
"}  c #857847",
"|  c #857849",
" . c #95754C",
".. c #9A714E",
"X. c #8C6D52",
"o. c #8F7656",
"O. c #9D7450",
"+. c #9E7B55",
"@. c #917658",
"#. c #947757",
"$. c #A17752",
"%. c #A37B55",
"&. c #A47E58",
"*. c #2AAA43",
"=. c #7D8F4D",
"-. c #6D944C",
";. c #7B904D",
":. c #70934C",
">. c #C89D1F",
",. c #CAA020",
"<. c #E1B62A",
"1. c #FDC61A",
"2. c #FDC818",
"3. c #FCC721",
"4. c #F8CA3C",
"5. c #8B844D",
"6. c #868C4E",
"7. c #8C8D4E",
"8. c #9B844F",
"9. c #8D954E",
"0. c #8C8C50",
"q. c #978751",
"w. c #918850",
"e. c #9A8A5A",
"r. c #A48253",
"t. c #A5845C",
"y. c #AA845C",
"u. c #A58D5D",
"i. c #AA8A5F",
"p. c #B79B58",
"a. c #94AC53",
"s. c #93A153",
"d. c #92B051",
"f. c #929473",
"g. c #A08260",
"h. c #AC8C62",
"j. c #B48D63",
"k. c #B88E65",
"l. c #B58E69",
"z. c #AC9B66",
"x. c #B49066",
"c. c #B0906C",
"v. c #BF9C6E",
"b. c #BD946A",
"n. c #AF9D70",
"m. c #B3A26D",
"M. c #B7A97B",
"N. c #C19D72",
"B. c #C1AC6A",
"V. c #C3A073",
"C. c #CDAA7C",
"Z. c #D3B777",
"A. c #D4BD73",
"S. c #D3BD78",
"D. c #FBCD4C",
"F. c #FBCC43",
"G. c #F8D15F",
"H. c #EDD37B",
"J. c #EED378",
"K. c #EDD37B",
"L. c #F2D47D",
"P. c #8A9883",
"I. c #A6A883",
"U. c #C1B484",
"Y. c #C3C195",
"T. c #FDD382",
"R. c #FED384",
"E. c #FDD284",
"W. c #FDD385",
"Q. c #F5D58C",
"!. c #F4D483",
"~. c #EFD797",
"^. c #E7D698",
"/. c #EED898",
"(. c #EBD999",
"). c #ECD892",
"_. c #F1D692",
"`. c #CBDDC1",
/* pixels */
"h.%... .....( ~ T Y R h.h.i.i.] T ( N.v.j.h.&.] ..%.%.....] ( ( ",
"h.t.+.+.+.%.E Y Y Y R h.h.h.o.r 2 r c.C.b.j.y.O.O.%.+.+.%.] Y Y ",
"] +.t.t.+.%.Y Y ( ] [ t.t._ t       v #.O...] ( ] y.t.%.+.O.] ] ",
"Y O.h.t.+.%.Y Y ] +.+.+...k           t Z Y T T ( h.h.%.+.+.+.+.",
"R ..t.&.O.O.R R ] %.%.+.j               , ! R R ( y.y.+.O.O.O.O.",
"O.( T T T E +.+.t.i.h.7 X   e <.<.<.e     : +.+...Y Y Y Y Y Y Y ",
"O.( T T T E %.+.y.h.t +   2 ,.2.2.1.>.h     1 o...U Y Y Y Y Y Y ",
"O...] ] ] ] R R / a $ # w 8.4.3.D.D.D.p.b . . a ) Y Y ] ........",
"O.O.O.O.O.O.Y Y M   q D e.H.G.F.W.T.W.Q.M.s s @ G Y Y ..%.%.%.%.",
"] %.y.t.%.&.Y Y Z   A.H.L.H.L.T.W.W.T.Q._._.~.* G ( ( [ ......[ ",
"T y.C.V.x.l.Y Y /   A.H.H.H.L.T.T.T.W.Q.~.)./.* J %.%.R Y Y Y Y ",
"T y.C.V.x.l.Y Y /   S.B.z.B.!.R.W.R.W.Z.n.m.(.& J %.%.R Y Y U Y ",
"..' Q Q Q R O.O._   Y.I.f.I.^.W.W.W.W.U.P.P.`.% F %.%.R Y ` $.$.",
"O.( T T T T %.+.X.  g 0 8 0 l x x x x q 9 9 S X C %.%.R Y ` %.%.",
"~ ' ........Q ( K   . . . . .                   N ( ( ] [ $.i.i.",
"Y ] %.%.%.%.Y Y M   . . . .                     n Y Y ..%.t.h.h.",
"Y ] %.$.....~ ( Z   .   . .                     N ( ( ] [ O.&.&.",
"Y ] %.[ Y Y %.%./ > 4 X                     < 4 K +.+.R Y Y Y Y ",
"Y ] %.[ Y Y %.%./ > 3 * * %           o * * 4 < K +.+.R Y Y Y Y ",
"$.$.%.%.O.O.R R / > 3 4 4 * % % % % % * 4 4 4 4 @.h.h.Q Y ( O.O.",
"%.%.%.%.%.%.Y Y / > 4 4 4 4 > 4 4 4 4 4 4 4 4 < #.h.h.Q Y ` +.+.",
"%.&.y.%.] ] Y Y _ < 4 4 4 4 4 4 4 4 4 4 4 4 4 4 ) O.O.R Y ' t.t.",
"%.y.k.%.Y Y Y Y ] 6 5 5 5 5 5 5 5 5 5 5 5 5 5 5 Z E Y Y Y ] h.h.",
"5.e.j.%.~ Q Y Y #.I P P P P P P P P P P P P P P X.E E Q W  .u.u.",
"*.-.r.r.r.r.Y Y !                               i H H 5.7.0.6.7.",
"*.:.r.r.r.r.Y Y /                               i H Z 5.7.7.7.7.",
"0.6.6.w.r.r...O.!     1 u z c p u y c c B v     z 5.5.s.a.a.a.a.",
"r.0.=.0.r.r.%.%.! O O f Y O.%.` Y R %.%.j.g.O O n 7.7.a.d.d.a.a.",
"q.6.=.7.r.r.%.%.Q = - m ` ] [ ~ Y R %.%.%.[ ; ; A { } 5.7.9.d.a.",
"=.;.=.7.r.r.%.%.( = ; T %.R Y Y Y R %.%.R V ; ; Z H H H H | a.a.",
";.=.=.7.r.r.%.%.R ; ; T %.R Y Y Y R %.%.R V ; ; Z Z Z H H } a.a.",
"=.w.r.r.r.r.T Y ] W W ..%.%.%.%.%...Y Y ..$.R R  .7.7.K H _ 7.7."
};
