/* XPM */
static const char *flouwer[] = {
/* columns rows colors chars-per-pixel */
"32 32 185 2 ",
"   c #BD7B4C",
".  c #BD7C51",
"X  c #B2765B",
"o  c #BC7F5F",
"O  c #AE7668",
"+  c #B47A66",
"@  c #AD7977",
"#  c #EB900D",
"$  c #EB900F",
"%  c #F29200",
"&  c #F29300",
"*  c #F39400",
"=  c #F39501",
"-  c #E58D16",
";  c #E88E13",
":  c #F6A401",
">  c #F6A601",
",  c #F7AA01",
"<  c #F8AD01",
"1  c #D88829",
"2  c #CD833A",
"3  c #C98141",
"4  c #7C5DA3",
"5  c #7D5EA3",
"6  c #7D5EA4",
"7  c #7E5FA4",
"8  c #7E5FA5",
"9  c #7E60A5",
"0  c #7F60A5",
"q  c #7F60A6",
"w  c #8A6595",
"e  c #87649C",
"r  c #9E7491",
"t  c #96719F",
"y  c #8061A6",
"u  c #8061A7",
"i  c #8062A6",
"p  c #8163A6",
"a  c #8062A7",
"s  c #8162A7",
"d  c #8163A7",
"f  c #8263A7",
"g  c #8164A6",
"h  c #8365A7",
"j  c #8263A8",
"k  c #8264A8",
"l  c #8364A8",
"z  c #8364A9",
"x  c #8465A9",
"c  c #8465AA",
"v  c #8566AA",
"b  c #8567AA",
"n  c #8566AB",
"m  c #8567AB",
"M  c #8667AB",
"N  c #8669A9",
"B  c #8568AA",
"V  c #8669AA",
"C  c #8768AB",
"Z  c #8768AC",
"A  c #8769AC",
"S  c #886DAB",
"D  c #896EAB",
"F  c #8869AC",
"G  c #8869AD",
"H  c #886AAC",
"J  c #896AAD",
"K  c #896AAE",
"L  c #896BAE",
"P  c #8A6BAE",
"I  c #8A6BAF",
"U  c #896CAD",
"Y  c #8A6EAC",
"T  c #8A6EAD",
"R  c #8A6CAF",
"E  c #8B6CAF",
"W  c #8B6EAE",
"Q  c #8C6DAC",
"!  c #8C6DAF",
"~  c #8C6FAF",
"^  c #8C70AE",
"/  c #8D70AF",
"(  c #8D72AE",
")  c #8D73AF",
"_  c #8E74AF",
"`  c #8B6DB0",
"'  c #8C6DB0",
"]  c #8E72B0",
"[  c #9075B1",
"{  c #9277B2",
"}  c #9178B1",
"|  c #9278B1",
" . c #9178B2",
".. c #937AB3",
"X. c #947BB4",
"o. c #957CB4",
"O. c #967CB5",
"+. c #967DB5",
"@. c #9982B7",
"#. c #9A82B7",
"$. c #9B84B9",
"%. c #9C85B9",
"&. c #9D86BA",
"*. c #9E86BB",
"=. c #9E88BA",
"-. c #A089BB",
";. c #A08ABC",
":. c #A38DBD",
">. c #A48EBF",
",. c #A590BF",
"<. c #A692C0",
"1. c #A792C0",
"2. c #A793C1",
"3. c #A995C2",
"4. c #AA96C2",
"5. c #AA96C3",
"6. c #AE9CC5",
"7. c #AF9DC6",
"8. c #B09EC7",
"9. c #B19FC7",
"0. c #B2A1C8",
"q. c #B4A3CA",
"w. c #B7A6CB",
"e. c #BAAACD",
"r. c #BAAACE",
"t. c #BBABCE",
"y. c #BCACCF",
"u. c #BDAED0",
"i. c #BEAFD1",
"p. c #C0B1D2",
"a. c #C0B2D2",
"s. c #C1B2D3",
"d. c #C1B3D3",
"f. c #C2B4D3",
"g. c #C3B5D4",
"h. c #C6B9D6",
"j. c #C6B9D7",
"k. c #C9BDD9",
"l. c #CABED9",
"z. c #CBBFDA",
"x. c #CDC1DB",
"c. c #CEC2DB",
"v. c #CEC3DB",
"b. c #CFC4DD",
"n. c #D2C8DF",
"m. c #DBD2E4",
"M. c #DED7E7",
"N. c #DFD8E7",
"B. c #E5DFEC",
"V. c #E5E0EC",
"C. c #E6E0ED",
"Z. c #E7E2ED",
"A. c #E8E3EE",
"S. c #EAE5EF",
"D. c #ECE8F1",
"F. c #ECE8F2",
"G. c #EEEAF2",
"H. c #EFEBF3",
"J. c #EFECF3",
"K. c #F0ECF3",
"L. c #F0ECF4",
"P. c #F1EEF4",
"I. c #F3F0F6",
"U. c #F3F1F6",
"Y. c #F4F2F7",
"T. c #F5F2F7",
"R. c #F5F3F7",
"E. c #F6F4F8",
"W. c #F6F4F9",
"Q. c #F6F5F9",
"!. c #F7F5F9",
"~. c #F7F6F9",
"^. c #F9F7FA",
"/. c #F9F8FA",
"(. c #F9F8FB",
"). c #FAF9FB",
"_. c #FBFAFC",
"`. c #FBFBFC",
"'. c #FCFCFD",
"]. c #FDFDFD",
"[. c #FDFDFE",
"{. c #FEFDFE",
"}. c #FEFEFE",
"|. c #FFFFFE",
" X c #FFFFFF",
/* pixels */
" X X X X X X X X X X X X X X X X X X X X X X X X X X X X X X X X",
" X X X X X X X X X X X X X X X X X X X X X X X X X X X X X X X X",
" X X X X X X X X X%.p #.b. X X X X X XR.h.4.4.Z. X X X X X X X X",
" X X X X X X~.u.Z.V E F 7 =.R. X X Xa.E E V 4 l. X X X X X X X X",
" X X X X X Xt.4 4 x ' ' F 7 X.^. X<.F ' ' Z 4 | ^ 4. X X X X X X",
" X X X X X XO.F p x ' ' ' V 4 w.g.F ' ' E 0 x ' F p ). X X X X X",
" X X X X X X~ ' E 0 ' ' ' ' p h E ' ' ' p Z ' ' ' p D. X X X X X",
" X X X X X X] ' ' z F ' ' ' F 4 x ' ' z F ' ' ' F 4 I. X X X X X",
" X X X X X X%.' ' F j ' ' ' ' 0 x ' F Z ' ' ' ' z D  X X X X X X",
" X X X X X Xa.F ' ' x F ' ' ' z p ' E ' ' ' ' F 4 0. X X X X X X",
" X X X X X X~.^ ' ' ' E ' ' ' x p ' ' ' ' ' E 0 h D. X X X X X X",
" X X X X XP.B.v.x ' ' ' ' ' ' x p ' ' ' ' E p 4 V { %.y.D. X X X",
" X X Xl.| 4 4 4 4 0 F ' ' ' ' x j ' ' ' F 0 7 F ' ' ' E F u. X X",
" XI.#.7 p x x Z x z 0 p F ' t . 3 @ F j 7 j E ' ' ' ' ' ' x 9. X",
"'.O.x E ' ' ' ' ' ' ' x 0 e - % % % X z F ' ' E V x Z F F p 4 Z.",
"n.0 ' ' ' ' ' ' ' ' ' ' ' O % % = = ; ' ' ' ' F F Z x j 0 4 9._.",
"P.-.F ' ' ' ' ' ' ' ' ' ' + % % , < # ~ ' ' ' ' ' ' ' ' ' x a. X",
" Xv.4 p p z x x F ' ' F 7 w # % > >   z F ' ' ' ' ' ' ' ' ' 4 M.",
"J.4 0 Z F F F E ' ' x 7 x ' r 2 1 o ~ x 7 z E ' ' ' ' ' E x #. X",
" X6.x ' ' ' ' ' ' x 7 F ' ' ' p x ' ' ' ' x 0 p z z p 0 4 :.~. X",
" X Xf.E F ' ' E x 4 x ' ' ' ' 0 F ' ' ' ' ' E p 0 4 V <.m. X X X",
" X X X~.v.6.<.4.4 p ' ' ' ' ' 0 F ' ' ' E ' ' E X.). X X X X X X",
" X X X X X X Xa.4 F ' ' ' F ' p x ' ' ' F F ' ' F l. X X X X X X",
" X X X X X X X%.7 ' ' ' ' x ' j p ' ' ' ' p E ' ' >. X X X X X X",
" X X X X X X X^ z ' ' ' F z ' x 4 E ' ' ' Z x ' ' {  X X X X X X",
" X X X X X X X_ x ' ' ' p F ' E 4 z ' ' ' ' 0 E ' ^  X X X X X X",
" X X X X X X X-.F ' ' x z ' ' F h 4 F ' ' ' x p F |  X X X X X X",
" X X X X X X Xh.z F Z 7 F ' E | S.E 7 F ' ' x 4 4 q. X X X X X X",
" X X X X X X X).| O.<.4 F E O.J. XD.| 7 F ' p N.t.R. X X X X X X",
" X X X X X X X X). XA.4 V t.). X X X).a.^ 7 D  X X X X X X X X X",
" X X X X X X X X X X XR. X X X X X X X X X~.'. X X X X X X X X X",
" X X X X X X X X X X X X X X X X X X X X X X X X X X X X X X X X"
};
