/* XPM */
static const char *honey[] = {
/* columns rows colors chars-per-pixel */
"32 32 231 2 ",
"   c #AD4D0E",
".  c #BC5409",
"X  c #BF5B0F",
"o  c #B4530B",
"O  c #BB5B12",
"+  c #B85813",
"@  c #B04C0B",
"#  c #BC6617",
"$  c #C45307",
"%  c #C2550C",
"&  c #C45B0D",
"*  c #CA5E0D",
"=  c #CB5706",
"-  c #C45E13",
";  c #C6630E",
":  c #CB650D",
">  c #CC6B0D",
",  c #C66007",
"<  c #D16309",
"1  c #D26C0B",
"2  c #CE720E",
"3  c #D4730C",
"4  c #D9750C",
"5  c #DC7B0E",
"6  c #C66413",
"7  c #CB6412",
"8  c #CD6B14",
"9  c #C5651A",
"0  c #CA671A",
"q  c #CB6C1A",
"w  c #C66B18",
"e  c #D26E11",
"r  c #D06A14",
"t  c #CB7113",
"y  c #CE731B",
"u  c #CB791E",
"i  c #CF7813",
"p  c #D37313",
"a  c #DA7612",
"s  c #D57B14",
"d  c #DA7C13",
"f  c #D2741A",
"g  c #D57B1A",
"h  c #D97C1A",
"j  c #C56A20",
"k  c #CE6E22",
"l  c #CC7425",
"z  c #CD7E2C",
"x  c #CA7627",
"c  c #D17521",
"v  c #D37C23",
"b  c #D17D2A",
"n  c #CD7B34",
"m  c #CB7533",
"M  c #D27E31",
"N  c #DD8414",
"B  c #DF8A15",
"V  c #D6831B",
"C  c #DC851B",
"Z  c #DC8C1C",
"A  c #D78115",
"S  c #E1870E",
"D  c #E38711",
"F  c #E38A14",
"G  c #E1851C",
"H  c #E28B1B",
"J  c #E59116",
"K  c #E4931C",
"L  c #E69B1E",
"P  c #EA9919",
"I  c #ECA21D",
"U  c #F2AC1C",
"Y  c #CE842D",
"T  c #D58226",
"R  c #DA8221",
"E  c #D78923",
"W  c #DD8C24",
"Q  c #D3842D",
"!  c #D8862B",
"~  c #D58B2B",
"^  c #DC8B2B",
"/  c #DE9323",
"(  c #DD932B",
")  c #DF9827",
"_  c #CF883D",
"`  c #D18333",
"'  c #D98D35",
"]  c #D48B3C",
"[  c #D88E3A",
"{  c #DA9436",
"}  c #DD9A33",
"|  c #DB933C",
" . c #DE9A3A",
".. c #D6923B",
"X. c #E08C24",
"o. c #E08D29",
"O. c #E39424",
"+. c #E49A24",
"@. c #E89D21",
"#. c #E2942C",
"$. c #E49A2C",
"%. c #E09232",
"&. c #E39C35",
"*. c #E39D3D",
"=. c #E59A38",
"-. c #EAA225",
";. c #E6A02C",
":. c #E9A429",
">. c #E7A126",
",. c #E6A232",
"<. c #E8A432",
"1. c #E8A933",
"2. c #E5A43D",
"3. c #E8A53A",
"4. c #E9AB3B",
"5. c #CC8643",
"6. c #D38C41",
"7. c #D28749",
"8. c #DC9442",
"9. c #DD9C42",
"0. c #DB954C",
"q. c #DB9C4D",
"w. c #D59646",
"e. c #C08E54",
"r. c #DB9B52",
"t. c #DB9E5A",
"y. c #D59951",
"u. c #CD965B",
"i. c #E19D42",
"p. c #E09E50",
"a. c #DDA44D",
"s. c #DDA455",
"d. c #DEA45C",
"f. c #DFAD5A",
"g. c #DFB05E",
"h. c #E5A542",
"j. c #E8A445",
"k. c #E5A943",
"l. c #E3A34B",
"z. c #E6AC4A",
"x. c #E9AE4C",
"c. c #EBAD40",
"v. c #ECB44B",
"b. c #EEB94E",
"n. c #ECB244",
"m. c #E4AC55",
"M. c #E3AC5C",
"N. c #E3A759",
"B. c #EAB354",
"V. c #E6B25B",
"C. c #EBB55A",
"Z. c #ECBB5D",
"A. c #EBB753",
"S. c #CFA76F",
"D. c #D5A164",
"F. c #DCA564",
"G. c #DEA965",
"H. c #DCAA6A",
"J. c #DAA46A",
"K. c #DDB16D",
"L. c #D7AA72",
"P. c #DAB372",
"I. c #E3AC62",
"U. c #E3AF68",
"Y. c #E5B264",
"T. c #E7B964",
"R. c #EBBB64",
"E. c #E3B46C",
"W. c #EABC6B",
"Q. c #E8B667",
"!. c #E0AE74",
"~. c #E4B572",
"^. c #E6BA74",
"/. c #E9BD74",
"(. c #E3B57B",
"). c #E5BB7A",
"_. c #E9BE7C",
"`. c #EFC35B",
"'. c #F3C45D",
"]. c #EEC266",
"[. c #EEC56C",
"{. c #EFC96F",
"}. c #F1C763",
"|. c #F0C56D",
" X c #F3CB6D",
".X c #ECC273",
"XX c #EBC47C",
"oX c #EEC97C",
"OX c #EBC474",
"+X c #F0C672",
"@X c #F1CA75",
"#X c #F0CD7C",
"$X c #F4D37A",
"%X c #DBB388",
"&X c #E2BC84",
"*X c #EBC384",
"=X c #EECC84",
"-X c #EDCB8C",
";X c #E7C489",
":X c #F1CE84",
">X c #F0CE8A",
",X c #EED18D",
"<X c #F1D38C",
"1X c #F3D381",
"2X c #E5C594",
"3X c #EBCC93",
"4X c #ECCE9B",
"5X c #EDD296",
"6X c #EDD29A",
"7X c #EFD899",
"8X c #F4DB95",
"9X c #F0D69A",
"0X c #F3DB9C",
"qX c #F2D593",
"wX c #F7E39A",
"eX c #F8E59F",
"rX c #E0C5A1",
"tX c #EDD4A5",
"yX c #EDD3A9",
"uX c #F3DDA4",
"iX c #F2DEAE",
"pX c #EDDDBC",
"aX c #F5E1A3",
"sX c #F4E2AD",
"dX c #F8E9A9",
"fX c #F6E3B0",
"gX c #F3E3BB",
"hX c #F6E9C5",
"jX c #F8F0D2",
"kX c #F6EED5",
"lX c #F9F4E2",
/* pixels */
"O %XrXm k 6XN.^ *.,.*.l.wXO.R.j.$.W Y.XX@.|.x.#.| :XX.K '.-.R q.",
"E.G.D.2X*XI.h.R.2.3.=X[.:.}.].;.z.oXA.i..Xv.&.M.uXR.@XB.X.$.v.].",
"o b aX] a s d d }.8X&.J N J 3.gX XP A a K Z.qX:XO.s D *.uX#Xn.s ",
"g p H.& a P J s d B.N I U I H ].K D L I H K oXJ F P J a l.h.D d ",
"g l Y.0 3 K / g h W.a 4.:.) H >XO.N -.Z C G .XF S -.O.p *.=.V N ",
"q j ;X8 0.V.X.h ^ T.H 1X@.:.O.T.H &.#X>.H G W.H j.W.O.h %.=.H *X",
"5.y.0XM.' M.I.| oX8X*.&.b.,.V.dXC.+.v.*.m.h.dXX.O.A.i.| E.XXh c.",
").' N #.W..XiXoXO.F 2.].Z.1X$X1.k.#Xb.B.8X`.<.Z.+X3.h.<XC.3.].2.",
"e N B F a W.Y.H N Z N F aXh.J C H K ].wXI K Z A W 0X<XH 3 5 5 V.",
"* N K K d 2.&.4 F I N C [.F d @.+.~ ) @XJ L +.Z Z C.#.N J N a a ",
"7 M.O.K h Y.^ a V.L C l.:XG N C.} W o.OXN ,.Z C ^ iXO.3 Z V d a ",
": U.h.R c G.8.C +X<.O.^ -XW O.:X&. .' /.$.:XF H ^ *X#.H XX#.d a ",
"^.b { 9.^.=XXXI.( b.k.7X<X#Xx.c.3.W.0X<Xv.b.n.3.m.eXoX$.+XQ.i.l.",
"r ~.3X<Xk.C s v _.-X{.1.Z C &.[.@X$XB.K Z. Xb.].n.Z &.R.[.Q.<Xx.",
"< 1 _.p.5 H H d 5 fXZ C 1.Z a #.B.K K K N %.uX4.+.Z Z a l.aXJ 3 ",
"f f p.8.< H +.d h T.C d <.) V &.&.4 L Z A d m.d N >.E d C T.D F ",
"k q t.*.v -X&.v r.3X^ d #.#.g N.2.h R.Z C h M.3 C ) E p ! m.4 C ",
"(.] ).q.g C.| | ~.lX^ i.~.! T ^.m.C [.) ^ W T.p I.a.C f Q Q.s =X",
"K.7XQ.M.E.| ( ,XfXhX3X3X/.Y.9XoXm.W.h.h.f.oXsXE.^ ' Y { 9XuX^ #.",
"3X! R f 6 ;XhX_.E p s 8.uXuX2.i g y Y.0X:X9.3 i.oXQ..XOX{ ( V.V.",
"9 = r 8 X & ).d 1 a 8 X ..N.p K V 8 : XXV 3 3 1 p (.Y.A A > p ; ",
"0 @ 8 + o O d.l 6 u # x (.~.: } Y q f Y.. 6 # w 8 n ' o s 3 8 % ",
"q - *Xz O w I.c 6.(.l n &XY.6./. .v z 6X8 D.z u w ` | ; | p 8 - ",
"8.T G.6.L.q.sXv ^ a.Q ` ~._.g l.Q ` ] tXp l.' v y s.0.g /.s y 9 ",
"2XqXV.a.5XS.e.~.W.} N.sXS.&XoXh.} G.-XtX*X[ | [ K.pX3Xm.2.z.Q s.",
"8 9 &XhX` 9 8 8 l gX3Xb 6 p q ;XgXd.O & f I.4X6Xu.  t 9.=XOX:XE.",
"p - . (.- 8 e e % G.7 $ 3 8 & * -X6 * & ; & G.8.8 C u O t uX' : ",
"y 9   r.@ & p p - r.q = p g * $ s.. $ 8 8 & 7.[ , E ~ w 6 E.; . ",
"x Y z t.- M v p v G.p l (.c 9 6 q.q n b 8 & 0.d.t E.~ j 5.tX8 & ",
"D.w.f.yX` J.2Xw.9.gX] T E._ 6.w.XXf q.6.l w G.(.f V.{ 6.r.3Xv | ",
"g.0XG.!.4X*XP.3X3X^.-X.X9.a.oX=X3X0Xl.^ q.XXjXkX!.g ( V.XX~.5XM.",
"gX] : * 7 7.jXt.1 1 5 l.5XuXi.2 p &.3XuX-Xr.8 p l.=X7Xa.; : 8 M."
};
